# xmcd
#
# Track frame offsets: 
#        150
#        8251
#        22651
#        32327
#        37726
#        43277
#        51001
#        56476
#        63076
#        67426
#        75601
#        83250
#        87752
#        93001
#        101927
#        107251
#        113476
#        121351
#        129676
#        137551
#        142651
#        147677
#        152925
#        160421
#        167777
#        174225
#        183509
#        195821
#
# Disc length: 2690 seconds
#
# Revision: 0
# Processed by: cddbd v1.5.2PL0 Copyright (c) Steve Scherf et al.
# Submitted via: ExactAudioCopy v0.95b4
#
DISCID=560a801c
DTITLE=Various Artist - Phlatline Sound - Feel So Nice - Phlatline Sound
DYEAR=2007
DGENRE=Reggae
TTITLE0=Rebellion The Recaller/Dubplate
TTITLE1=Patrice/Dubplate
TTITLE2=Choppa Chop/Dubplate
TTITLE3=Choppa Chop/No Justice
TTITLE4=Richie Spice/Open Da Door
TTITLE5=Chezidek/Inna Di Road
TTITLE6=Ras Shiloh/Momma Warning
TTITLE7=Choppa Chop/Lovely Day
TTITLE8=Sizzla/Give Jah Thanx
TTITLE9=Johnny Osbourne ft Burru Banton/The Truth
TTITLE10=Richie Spice/Youths A So Cold
TTITLE11=Chuck Fender/It's All About The Weed
TTITLE12=King Kong/I Feel A Joy
TTITLE13=Morgan Heritage/Have Been Loving You
TTITLE14=Richie Spice/Brown Skin
TTITLE15=Gentleman/No Doubt About It
TTITLE16=Fantan Mojah/Feel So Nice
TTITLE17=Beres Hammond/Try If You Want
TTITLE18=Daville/On My Mind
TTITLE19=Richie Stephens/Strength Of Your Love
TTITLE20=Bounty Killer/World Gone Crazy
TTITLE21=Wayne Marshall/Forgive Dem Please
TTITLE22=Tanya Stephens/Glue
TTITLE23=Perfect/Dubplate
TTITLE24=Little Hero/Dubplate
TTITLE25=Sadiki/Dubplate
TTITLE26=Phenomden/Dubplate
TTITLE27=Mark Wonder/Dubplate
EXTD=
EXTT0=
EXTT1=
EXTT2=
EXTT3=
EXTT4=
EXTT5=
EXTT6=
EXTT7=
EXTT8=
EXTT9=
EXTT10=
EXTT11=
EXTT12=
EXTT13=
EXTT14=
EXTT15=
EXTT16=
EXTT17=
EXTT18=
EXTT19=
EXTT20=
EXTT21=
EXTT22=
EXTT23=
EXTT24=
EXTT25=
EXTT26=
EXTT27=
PLAYORDER=
